<?xml version="1.0" encoding="UTF-8"?>
<svg id="Layer_2" data-name="Layer 2" xmlns="http://www.w3.org/2000/svg" width="17.78" height="13.32" viewBox="0 0 17.78 13.32">
  <defs>
    <style>
      .cls-1 {
        fill: #fff;
      }
    </style>
  </defs>
  <g id="Isolation_Mode" data-name="Isolation Mode">
    <g>
      <path class="cls-1" d="M17,4.96c0,.66-.15,1.28-.42,1.83,.19,.21,.37,.43,.52,.67,.43-.74,.68-1.59,.68-2.51,0-2.68-2.12-4.86-4.77-4.96,.02,.25,.05,.51,.06,.78,2.19,.14,3.93,1.95,3.93,4.18Z"/>
      <path class="cls-1" d="M15.9,6.19c.15-.38,.24-.79,.24-1.23,0-1.74-1.33-3.17-3.03-3.32,0,.27,0,.55,0,.81,1.26,.15,2.24,1.21,2.24,2.51,0,.29-.05,.57-.14,.83,.24,.11,.47,.25,.69,.4Z"/>
      <path class="cls-1" d="M14.67,8.87h-4.17c-.28,.61-.55,.87-.86,.87-.07,0-.13-.01-.19-.04-.3-.12-.41-.41-.44-.72-.21-.07-.44-.11-.71-.11-.33,0-.61,.05-.86,.15-.25,.1-.46,.24-.62,.43-.14,.16-.25,.35-.33,.56,0-.03-.01-.06-.02-.08-.08-.24-.2-.44-.36-.61-.15-.17-.34-.3-.56-.39-.22-.1-.47-.14-.75-.14-.34,0-.64,.06-.89,.17-.26,.11-.47,.27-.64,.47-.17,.2-.3,.43-.38,.69-.09,.27-.13,.55-.13,.85s.04,.59,.12,.85c.08,.26,.21,.49,.38,.67,.17,.19,.4,.34,.67,.44,.27,.11,.6,.16,.99,.16,.5,0,.98-.09,1.45-.26,0-.21-.04-.41-.09-.6-.06-.19-.12-.36-.2-.5-.19,.07-.38,.13-.57,.17-.19,.04-.36,.06-.52,.06-.24,0-.43-.05-.58-.14-.15-.09-.25-.24-.31-.46h2.23c.02,.16,.05,.32,.1,.47,.09,.26,.21,.48,.38,.66,.17,.18,.38,.32,.62,.42,.25,.1,.54,.15,.86,.15s.62-.05,.87-.15c.25-.1,.46-.24,.63-.42,.17-.18,.3-.4,.38-.66s.13-.54,.13-.85-.04-.6-.13-.87c-.02-.06-.05-.11-.07-.17h1.56v2.92c.13,.02,.25,.04,.36,.05,.11,.01,.21,.02,.3,.02s.19,0,.3-.02c.11-.01,.23-.03,.37-.05v-2.92h1.7c.03-.1,.04-.2,.05-.29,0-.09,.01-.18,.01-.26s0-.17-.01-.26c0-.09-.02-.18-.05-.29Zm-10.59,1.59c.02-.22,.09-.39,.22-.5,.12-.11,.27-.16,.44-.16,.2,0,.35,.06,.45,.19,.1,.13,.16,.28,.17,.47h-1.28Zm4.72,1.29c-.11,.18-.28,.26-.51,.26s-.4-.09-.5-.26c-.11-.18-.16-.43-.16-.75s.05-.58,.16-.76c.11-.18,.28-.26,.5-.26s.4,.09,.51,.26c.11,.18,.17,.43,.17,.76s-.06,.58-.17,.75Z"/>
      <path class="cls-1" d="M2.55,12.3c-.51-.17-.95-.48-1.21-.89-.14-.23-.2-.36-.26-.62-.06-.23-.07-.41-.06-.69,.04-.86,.51-1.77,1.29-2.17,.07-.04-.02,0,.08-.04,.06-.02,.13-.04,.19-.06,.16-.04,.13-.03,.29-.04,.24,0,.48,.06,.72,.17,.36,.18,.93-.12,.76-.58-.49-1.31-.1-2.71,1.04-3.55,1.11-.81,2.61-.87,3.7,0,.09,.08,.2,.12,.32,.13,.16-.24,.32-.5,.49-.76-.02-.04-.04-.08-.08-.1-1.12-.89-2.58-1.21-3.94-.69-1.27,.48-2.32,1.53-2.67,2.85-.13,.5-.15,1.02-.07,1.53-2.31-.23-3.88,2.86-2.8,4.96,.4,.77,1.12,1.27,1.93,1.54,.63,.21,.9-.79,.27-1Z"/>
      <path class="cls-1" d="M14.9,6.05c-.06-.02-.12-.04-.18-.06,.12,.42,.22,.85,.29,1.3,.41,.27,.77,.64,1.03,1.11,.66,1.2,.52,2.7-.49,3.67-.09,.08-.14,.19-.17,.29,.22,.19,.45,.38,.69,.59,.04-.02,.08-.03,.11-.06,1.03-.99,1.54-2.4,1.21-3.82-.31-1.32-1.21-2.5-2.48-3.02Z"/>
      <path class="cls-1" d="M7.91,7.94c.12,.2,.72,.29,1.52,.31h0s-.23,.97,.15,1.12c.27,.11,.61-.67,.77-1.12,1.95-.04,4.35-.31,4.35-.31-.05-.7-.19-1.38-.39-2.01,.18-.28,.29-.6,.29-.96,0-.9-.66-1.63-1.53-1.76,0,.02,0,.04,0,.06-.74-1.19-1.44-1.91-1.44-1.91,0,0-4.13,5.88-3.72,6.59Z"/>
    </g>
  </g>
</svg>