<?xml version="1.0" encoding="UTF-8"?>
<svg id="Layer_2" data-name="Layer 2" xmlns="http://www.w3.org/2000/svg" width="25.87" height="25.87" viewBox="0 0 25.87 25.87">
  <defs>
    <style>
      .cls-1 {
        fill: #fff;
      }

      .cls-2 {
        fill: #6f9bd1;
      }

      .cls-3 {
        fill: #df3c5f;
      }
    </style>
  </defs>
  <g id="Isolation_Mode" data-name="Isolation Mode">
    <rect class="cls-1" width="25.87" height="25.87"/>
    <g>
      <path class="cls-2" d="M20.99,13.35c0,1.27-.3,2.47-.82,3.54,.37,.4,.72,.83,1.01,1.3,.83-1.42,1.32-3.08,1.31-4.85,0-5.18-4.1-9.39-9.23-9.6,.05,.48,.09,.99,.12,1.51,4.24,.27,7.6,3.78,7.6,8.09Z"/>
      <path class="cls-2" d="M17.8,13.35c0,.56-.1,1.1-.28,1.6,.47,.22,.92,.47,1.34,.77,.29-.74,.47-1.53,.47-2.37,0-3.36-2.57-6.12-5.86-6.42,.01,.53,.02,1.05,0,1.56,2.43,.3,4.32,2.35,4.32,4.86Z"/>
    </g>
    <path class="cls-3" d="M15.78,15.22c.35-.54,.56-1.18,.56-1.87,0-1.74-1.28-3.16-2.95-3.41,0,.04-.01,.07-.02,.11-1.42-2.29-2.78-3.69-2.78-3.69,0,0-7.98,11.38-7.19,12.74,.23,.39,1.39,.55,2.94,.59h0s-.45,1.87,.29,2.17c.53,.21,1.17-1.3,1.49-2.17,3.77-.08,8.41-.59,8.41-.59-.1-1.36-.37-2.66-.76-3.88Z"/>
  </g>
</svg>